<?xml version="1.0" encoding="utf-8"?>
<!-- Generator: Adobe Illustrator 23.0.3, SVG Export Plug-In . SVG Version: 6.00 Build 0)  -->
<svg version="1.1" id="レイヤー_1" xmlns="http://www.w3.org/2000/svg" xmlns:xlink="http://www.w3.org/1999/xlink" x="0px"
	 y="0px" viewBox="0 0 384.6 75.5" style="enable-background:new 0 0 384.6 75.5;" xml:space="preserve">
<g>
	<path d="M43.5,1.7l27,72.1H54l-5.4-16.1h-27L16,73.8H0L27.3,1.7L43.5,1.7L43.5,1.7z M44.4,46l-9.1-26.5h-0.2L25.8,46H44.4z"/>
	<path d="M92.5,1.7l30.1,48.4h0.2V1.7h14.9v72.1h-15.9l-30-48.3h-0.2v48.3H76.8V1.7L92.5,1.7L92.5,1.7z"/>
	<path d="M167.5,1.7v72.1h-15.9V1.7L167.5,1.7L167.5,1.7z"/>
	<path d="M235.3,1.7v13.3h-38.1v15.4h35v12.3h-35v17.7h38.9v13.3h-54.8V1.7L235.3,1.7L235.3,1.7z"/>
	<path d="M293.1,21c-0.9-1.5-2.1-2.8-3.5-4c-1.4-1.1-3-2-4.8-2.7c-1.8-0.6-3.7-1-5.6-1c-3.6,0-6.6,0.7-9.1,2.1s-4.5,3.2-6.1,5.6
		c-1.5,2.3-2.7,5-3.4,7.9c-0.7,3-1.1,6-1.1,9.2c0,3,0.4,6,1.1,8.8c0.7,2.9,1.8,5.4,3.4,7.7s3.6,4.1,6.1,5.5c2.5,1.4,5.5,2.1,9.1,2.1
		c4.8,0,8.6-1.5,11.4-4.4c2.7-3,4.4-6.9,5-11.7h15.3c-0.4,4.5-1.5,8.6-3.1,12.2c-1.7,3.6-3.9,6.7-6.7,9.3s-6,4.5-9.7,5.9
		c-3.7,1.4-7.8,2-12.2,2c-5.5,0-10.5-1-14.9-2.9c-4.4-1.9-8.1-4.6-11.2-7.9c-3-3.4-5.4-7.3-7-11.9c-1.6-4.5-2.4-9.4-2.4-14.7
		c0-5.4,0.8-10.4,2.4-15c1.6-4.6,3.9-8.6,7-12.1c3-3.4,6.7-6.1,11.2-8.1C268.7,1,273.6,0,279.2,0c4,0,7.7,0.6,11.3,1.7
		c3.5,1.1,6.7,2.8,9.5,5c2.8,2.2,5.1,4.9,6.9,8.1c1.8,3.2,3,6.9,3.4,11.1h-15.3C294.7,24.1,294.1,22.5,293.1,21z"/>
	<path d="M357.7,1.7l27,72.1h-16.5l-5.5-16.1h-27l-5.7,16.1h-16l27.3-72.1L357.7,1.7L357.7,1.7z M358.6,46l-9.1-26.5h-0.2L339.9,46
		H358.6z"/>
</g>
</svg>
