<?xml version="1.0" encoding="utf-8"?>
<!-- Generator: Adobe Illustrator 24.1.3, SVG Export Plug-In . SVG Version: 6.00 Build 0)  -->
<svg version="1.1" id="レイヤー_1" xmlns="http://www.w3.org/2000/svg" xmlns:xlink="http://www.w3.org/1999/xlink" x="0px"
	 y="0px" viewBox="0 0 1158.6 179" style="enable-background:new 0 0 1158.6 179;" xml:space="preserve">
<style type="text/css">
	.st0{fill:#FFFFFF;}
</style>
<polygon points="92.8,1.2 0,68.6 35.4,177.7 150.1,177.7 185.6,68.6 "/>
<rect x="-309.1" y="285.6" width="1579.3" height="482.6"/>
<g>
	<path d="M274.9,84c-5.1-0.5-12.1-2.6-18-1c-11.8,3.3-19.8,21.8-10.8,34.4c6.1,8.5,17.8,6.4,29.4,5.2c0,3.1,0,6.1,0,9.2
		c-17.1,3-33.1,1.2-40.2-10.5c-3-4.9-5-13.6-3.6-21.6c3.9-21.4,18.6-30.9,43.2-24.9C274.9,77.9,274.9,81,274.9,84z"/>
	<path d="M589.6,84c-5.1-0.5-12.1-2.6-18-1c-11.8,3.3-19.8,21.8-10.8,34.4c6.1,8.5,17.8,6.4,29.4,5.2c0,3.1,0,6.1,0,9.2
		c-17.1,3-33.1,1.2-40.2-10.5c-3-4.9-5-13.6-3.6-21.6c3.9-21.4,18.6-30.9,43.2-24.9C589.6,77.9,589.6,81,589.6,84z"/>
	<path d="M979.3,123.9c0-4.5,0-8.9,0-13.4c-4.4,0-8.7,0-13.1,0c0-3.1,0-6.1,0-9.2c8.1,0,16.1,0,24.2,0c0.1,4.7,1.1,27.5-0.7,29.4
		c-3.3,1.8-7.4,1.6-11.8,2.3c-22.4,3.7-41.4-9.3-37.3-32.7c3.5-20.5,23.1-33.8,47.4-25.2c0,3.1,0,6.1,0,9.2
		c-11.8-1.6-25.1-2.9-31.4,5.2c-7.6,9.7-5.7,28.3,5.2,33C966.5,124.6,973.3,124.3,979.3,123.9z"/>
	<path d="M286,73.9c12.6,0,25.3,0,38,0c0,3.1,0,6.1,0,9.2c-9.1,0-18.1,0-27.2,0c0,5,0,10,0,15.1c7.7,0,15.5,0,23.2,0
		c0,3.1,0,6.1,0,9.2c-7.7,0-15.5,0-23.2,0c0,5.5,0,10.9,0,16.4c9.6,0,19.2,0,28.8,0c0,2.9,0,5.9,0,8.8c-13.2,0-26.4,0-39.6,0
		C286,112.9,286,93.4,286,73.9z"/>
	<path d="M450.6,73.9c5.1,0.1,10.3,0.2,15.4,0.3c4.9,14,9.8,27.9,14.7,41.9c4.8-14.1,9.6-28.1,14.4-42.2c5.1,0,10.3,0,15.4,0
		c0,19.5,0,39,0,58.6c-3.7,0-7.4,0-11.1,0c0.1-14.7,0.2-29.4,0.3-44.2c-5.1,14.7-10.3,29.4-15.4,44.2c-2.5,0-5,0-7.5,0
		c-5.2-14.6-10.5-29.2-15.7-43.8c0.1,14.6,0.2,29.2,0.3,43.8c-3.6,0-7.2,0-10.8,0C450.6,112.9,450.6,93.4,450.6,73.9z"/>
	<path d="M524.2,73.9c3.6,0,7.2,0,10.8,0c0,19.5,0,39,0,58.6c-3.6,0-7.2,0-10.8,0C524.2,112.9,524.2,93.4,524.2,73.9z"/>
	<path d="M731.3,73.9c3.9,0,7.9,0,11.8,0c2.4,14.5,10,27.2,11.8,42.5c0.1-0.2,0.2-0.4,0.3-0.7c3.5-14,7-27.9,10.5-41.9
		c3.7,0,7.4,0,11.1,0c0,0.2,0,0.4,0,0.7c3.5,14,7,27.9,10.5,41.9c0-0.2,0-0.4,0-0.7c4-14,8.1-27.9,12.1-41.9c3.8,0,7.6,0,11.5,0
		c-6.1,19.5-12.2,39-18.3,58.6c-3.7,0-7.4,0-11.1,0c-3.4-14.1-6.8-28.1-10.1-42.2c-0.1,0-0.2,0-0.3,0c-3.4,14.1-6.8,28.1-10.1,42.2
		c-3.7,0-7.4,0-11.1,0C743.5,112.9,737.4,93.4,731.3,73.9z"/>
	<path d="M818.6,73.9c12.6,0,25.3,0,38,0c0,3.1,0,6.1,0,9.2c-9.1,0-18.1,0-27.2,0c0,5,0,10,0,15.1c7.7,0,15.5,0,23.2,0
		c0,3.1,0,6.1,0,9.2c-7.7,0-15.5,0-23.2,0c0,5.5,0,10.9,0,16.4c9.6,0,19.2,0,28.8,0c0,2.9,0,5.9,0,8.8c-13.2,0-26.4,0-39.6,0
		C818.6,112.9,818.6,93.4,818.6,73.9z"/>
	<path d="M1003.2,73.9c12.6,0,25.3,0,38,0c0,3.1,0,6.1,0,9.2c-9.1,0-18.1,0-27.2,0c0,5,0,10,0,15.1c7.7,0,15.5,0,23.2,0
		c0,3.1,0,6.1,0,9.2c-7.7,0-15.5,0-23.2,0c0,5.5,0,10.9,0,16.4c9.6,0,19.2,0,28.8,0c0,2.9,0,5.9,0,8.8c-13.2,0-26.4,0-39.6,0
		C1003.2,112.9,1003.2,93.4,1003.2,73.9z"/>
	<path d="M724.1,88.6c-4.6-10.7-12.7-13.5-26.2-15.7c-3.2,0.4-6.3,0.9-9.5,1.3c-8.1,2.5-14.2,8.9-17,16.7
		c-8.2,23.2,6.7,47.2,32.1,42.5C721.6,130.1,733.2,109.8,724.1,88.6z M701.5,124.3c-17.2,3.4-24.2-15.6-19.3-30.1
		c2.3-6.7,6.3-8.4,12.4-11.5C721.9,82,721.1,120.4,701.5,124.3z"/>
	<path d="M366.2,108.6c3.9-2.2,7.9-3.1,10.5-6.5c5.9-7.8,2.3-20.5-4.3-24.5c-7.8-4.8-23.6-3.9-36-3.6c0,19.5,0,39,0,58.6
		c3.6,0,7.2,0,10.8,0c0-7.4,0-14.8,0-22.2c2.4,0,4.8,0,7.2,0c5.1,7.2,10.3,14.4,15.4,21.6c1.9,1.7,10.2,0.8,13.4,0.7
		C377.5,124.5,371.8,116.5,366.2,108.6z M347.2,101c0-6,0-12,0-18c9.4-0.3,19.7-0.6,21.3,7.2C370.6,100.9,356.4,101.4,347.2,101z"/>
	<path d="M659.6,83c-6.1-10.3-24-9.5-40.6-9.2c0,19.5,0,39,0,58.6c3.6,0,7.2,0,10.8,0c0-7.5,0-15.1,0-22.6c17.6,0.3,29-2.1,31.4-17
		C661.8,89.8,661,85.4,659.6,83z M629.9,100.7c0-5.9,0-11.8,0-17.7c8.9-0.3,18.7-0.3,20.3,6.9C652.5,100.7,639.2,101.1,629.9,100.7z
		"/>
	<path d="M898.8,108.6c3.9-2.2,7.9-3.1,10.5-6.5c5.9-7.8,2.3-20.5-4.3-24.5c-7.8-4.8-23.6-3.9-36-3.6c0,19.5,0,39,0,58.6
		c3.6,0,7.2,0,10.8,0c0-7.4,0-14.8,0-22.2c2.4,0,4.8,0,7.2,0c5.1,7.2,10.3,14.4,15.4,21.6c1.9,1.7,10.2,0.8,13.4,0.7
		C910.1,124.5,904.5,116.5,898.8,108.6z M879.8,101c0-6,0-12,0-18c9.4-0.3,19.7-0.6,21.3,7.2C903.2,100.9,889.1,101.4,879.8,101z"/>
	<path d="M1141.6,108.6c3.9-2.2,7.9-3.1,10.5-6.5c5.9-7.8,2.3-20.5-4.3-24.5c-7.8-4.8-23.6-3.9-36-3.6c0,19.5,0,39,0,58.6
		c3.6,0,7.2,0,10.8,0c0-7.4,0-14.8,0-22.2c2.4,0,4.8,0,7.2,0c5.1,7.2,10.3,14.4,15.4,21.6c1.9,1.7,10.2,0.8,13.4,0.7
		C1152.9,124.5,1147.2,116.5,1141.6,108.6z M1122.6,101c0-6,0-12,0-18c9.4-0.3,19.7-0.6,21.3,7.2
		C1146,100.9,1131.8,101.4,1122.6,101z"/>
	<path d="M419.8,73.9c-3.4,0-6.8,0-10.1,0c-7.7,19.5-15.5,39-23.2,58.6c4-0.1,8.1-0.2,12.1-0.3c1.7-4.8,3.5-9.6,5.2-14.4
		c7.3,0,14.6,0,21.9,0c1.9,4.9,3.7,9.8,5.6,14.7c3.8,0,7.6,0,11.5,0C435.1,112.9,427.5,93.4,419.8,73.9z M407.7,108.6
		c2.3-6.7,4.6-13.3,6.9-20c2.4,6.7,4.8,13.3,7.2,20C417.1,108.6,412.4,108.6,407.7,108.6z"/>
	<path d="M1081,73.9c-3.4,0-6.8,0-10.1,0c-7.7,19.5-15.5,39-23.2,58.6c4-0.1,8.1-0.2,12.1-0.3c1.7-4.8,3.5-9.6,5.2-14.4
		c7.3,0,14.6,0,21.9,0c1.9,4.9,3.7,9.8,5.6,14.7c3.8,0,7.6,0,11.5,0C1096.3,112.9,1088.7,93.4,1081,73.9z M1068.9,108.6
		c2.3-6.7,4.6-13.3,6.9-20c2.4,6.7,4.8,13.3,7.2,20C1078.3,108.6,1073.6,108.6,1068.9,108.6z"/>
</g>
<path class="st0" d="M133.5,121c-8.3,12-23.5,20-40.9,20C66.4,141,45,122.5,45,99.7s21.3-41.3,47.7-41.3c17.1,0,32,7.8,40.5,19.5h18
	C141.7,57.4,119.2,43,93,43c-34.9,0-63.2,25.5-63.2,57s28.3,57,63.2,57c26.6,0,49.4-14.9,58.7-35.9H133.5z"/>
<g>
	<path class="st0" d="M67.1,89.8h3.2l0.3,1.7h0.1c1.4-1.1,3.2-2.1,5-2.1c4.1,0,6.5,3.2,6.5,8.1c0,5.4-3.4,8.5-7.1,8.5
		c-1.5,0-2.9-0.6-4.3-1.7l0.1,2.6v5h-3.9V89.8z M78.2,97.5c0-3.2-1.1-5-3.6-5c-1.2,0-2.3,0.6-3.6,1.8v7.4c1.2,1,2.4,1.3,3.3,1.3
		C76.5,103,78.2,101.1,78.2,97.5z"/>
	<path class="st0" d="M85,97.7c0-5.3,3.7-8.3,7.9-8.3s7.9,3,7.9,8.3c0,5.2-3.7,8.3-7.9,8.3S85,103,85,97.7z M96.8,97.7
		c0-3.2-1.5-5.3-3.9-5.3S89,94.6,89,97.7c0,3.2,1.5,5.3,3.9,5.3S96.8,100.9,96.8,97.7z"/>
	<path class="st0" d="M102.7,89.8h3.9l2,8.2c0.3,1.5,0.6,3,0.9,4.6h0.1c0.3-1.5,0.6-3.1,1.1-4.6l2.2-8.2h3.5l2.2,8.2
		c0.4,1.5,0.7,3,1.1,4.6h0.1c0.3-1.5,0.6-3,0.9-4.6l2-8.2h3.6l-4.2,15.8h-4.6l-1.9-7.4c-0.4-1.5-0.6-2.9-1-4.6h-0.1
		c-0.3,1.7-0.6,3.1-1,4.6l-1.9,7.4h-4.5L102.7,89.8z"/>
	<path class="st0" d="M128.3,97.7c0-5.1,3.7-8.3,7.6-8.3c4.5,0,6.8,3.1,6.8,7.5c0,0.7-0.1,1.4-0.2,1.8h-10.5
		c0.3,2.8,2.2,4.4,4.9,4.4c1.4,0,2.6-0.4,3.8-1.1l1.3,2.3c-1.6,1-3.6,1.7-5.7,1.7C131.9,106,128.3,103,128.3,97.7z M139.4,96.2
		c0-2.4-1.1-3.9-3.4-3.9c-1.9,0-3.6,1.4-4,3.9H139.4z"/>
	<path class="st0" d="M146.5,89.8h3.2l0.3,2.8h0.1c1.2-2.1,2.9-3.2,4.7-3.2c0.8,0,1.4,0.1,1.9,0.3l-0.7,3.2c-0.6-0.2-1-0.3-1.7-0.3
		c-1.3,0-2.9,0.9-3.9,3.3v9.7h-3.9V89.8z"/>
</g>
</svg>
